<?xml version="1.0" encoding="utf-8"?>
<!-- Generator: Adobe Illustrator 25.0.1, SVG Export Plug-In . SVG Version: 6.00 Build 0)  -->
<svg version="1.1" id="图层_1" xmlns="http://www.w3.org/2000/svg" xmlns:xlink="http://www.w3.org/1999/xlink" x="0px" y="0px"
	 viewBox="0 0 500 500" style="enable-background:new 0 0 500 500;" xml:space="preserve">
<style type="text/css">
	.st0{display:none;fill:#040000;}
	.st1{fill:#6EE6A0;}
</style>
<rect x="-2.85" y="-1.32" class="st0" width="507.37" height="505.42"/>
<g>
	<g>
		<g>
			<path class="st1" d="M241.47,331.4H90.59l-2.27-2.27V171.35l2.27-2.27l1.64,0.7l150.88,157.79L241.47,331.4z M92.86,326.87
				h143.31L92.86,177V326.87z"/>
		</g>
	</g>
	<g>
		<g>
			<path class="st1" d="M311.7,331.4h-70.22l-1.64-0.7L88.95,172.92l1.64-3.83h66.78l1.62,0.68l154.32,157.79L311.7,331.4z
				 M242.44,326.87h63.87L156.42,173.62H95.9L242.44,326.87z"/>
		</g>
	</g>
	<g>
		<g>
			<path class="st1" d="M233.91,252.24l-36.62-37.05l0.04-3.23l44.1-42.24l1.57-0.63h68.7l1.63,3.84l-76.18,79.3L233.91,252.24z
				 M202.13,213.64l33.37,33.76l70.88-73.78h-62.47L202.13,213.64z"/>
		</g>
	</g>
	<g>
		<g>
			<path class="st1" d="M365.46,331.4H311.7l-2.27-2.27V171.35l2.27-2.27h53.76c10.09,0,43,3.03,43,42.01
				c0,36.77-26.87,42.54-40.74,43.06v74.98L365.46,331.4z M313.96,326.87h49.22v-74.94l2.27-2.27c14.37,0,38.47-5.01,38.47-38.57
				c0-33.82-26.9-37.47-38.47-37.47h-51.49V326.87z"/>
		</g>
	</g>
	<g>
		<g>
			<path class="st1" d="M398.7,331.4h-35.51v-4.53h33.25v-74.94l2.27-2.27c14.37,0,38.47-5.01,38.47-38.57
				c0-33.82-26.9-37.47-38.47-37.47h-35.51v-4.53h35.51c10.09,0,43,3.03,43,42.01c0,36.77-26.87,42.54-40.74,43.06v74.98
				L398.7,331.4z"/>
		</g>
	</g>
	<g>
		<g>
			<rect x="363.19" y="249.66" class="st1" width="37.78" height="4.53"/>
		</g>
	</g>
</g>
</svg>
