<svg id="图层_1" data-name="图层 1" xmlns="http://www.w3.org/2000/svg" viewBox="0 0 500 500"><defs><style>.cls-1{fill:#040000;}.cls-2{fill:#6ee6a0;}</style></defs><rect class="cls-1" x="-2.85" y="-1.32" width="507.37" height="505.42"/><path class="cls-2" d="M241.47,331.4H90.59l-2.26-2.26V171.35l2.26-2.27,1.64.7L243.11,327.57ZM92.86,326.87H236.17L92.86,177Z"/><path class="cls-2" d="M311.7,331.4H241.47l-1.63-.7L89,172.92l1.64-3.84h66.79l1.62.69L313.32,327.55Zm-69.26-4.53h63.87L156.42,173.62H95.9Z"/><path class="cls-2" d="M233.91,252.24l-36.63-37.05.05-3.23,44.1-42.25,1.57-.63h68.7l1.63,3.84-76.17,79.3Zm-31.78-38.6L235.5,247.4l70.88-73.78H243.91Z"/><path class="cls-2" d="M365.46,331.4H311.7l-2.27-2.26V171.35l2.27-2.27h53.76c10.08,0,43,3,43,42,0,36.78-26.88,42.54-40.74,43.06v75ZM314,326.87h49.23V251.93l2.27-2.27c14.36,0,38.46-5,38.46-38.57,0-33.82-26.9-37.47-38.46-37.47H314Z"/><path class="cls-2" d="M398.7,331.4H363.19v-4.53h33.25V251.93l2.26-2.27c14.37,0,38.47-5,38.47-38.57,0-33.82-26.9-37.47-38.47-37.47H363.19v-4.54H398.7c10.09,0,43,3,43,42,0,36.78-26.88,42.54-40.74,43.06v75Z"/><rect class="cls-2" x="363.19" y="249.66" width="37.78" height="4.53"/></svg>