<?xml version="1.0" standalone="no"?><!DOCTYPE svg PUBLIC "-//W3C//DTD SVG 1.1//EN" "http://www.w3.org/Graphics/SVG/1.1/DTD/svg11.dtd"><svg t="1662203618702" class="icon" viewBox="0 0 1024 1024" version="1.1" xmlns="http://www.w3.org/2000/svg" p-id="2449" xmlns:xlink="http://www.w3.org/1999/xlink" width="200" height="200"><path d="M627.2 337.7664a382.7712 382.7712 0 0 0-457.1648-87.04 382.7456 382.7456 0 0 0 56.6016 426.5216L493.3376 975.872c0.6144 0.6656 1.28 1.3568 1.9968 1.9968a25.0112 25.0112 0 0 0 10.4192 5.5552l121.4464-135.936a382.6944 382.6944 0 0 0 0-509.7216z" fill="#EE7C3D" p-id="2450"></path><path d="M512 121.7024a300.6976 300.6976 0 0 1 224.384 500.9664L512 873.8048l-224.2816-251.136A300.6976 300.6976 0 0 1 512 121.7024m0-81.92a382.592 382.592 0 0 0-285.2352 637.44L493.3376 975.872c0.6144 0.6656 1.28 1.3568 1.9968 1.9968a25.1136 25.1136 0 0 0 35.3792-1.9968l266.6752-298.624A382.6176 382.6176 0 0 0 512 39.7824z" fill="#333333" p-id="2451"></path><path d="M512.896 310.656a67.6864 67.6864 0 1 1-67.6608 67.6608 67.7632 67.7632 0 0 1 67.6608-67.6608m0-81.92a149.6064 149.6064 0 1 0 149.6064 149.5808 149.5808 149.5808 0 0 0-149.6064-149.5808z" fill="#333333" p-id="2452"></path></svg>